<svg fill="none" xmlns="http://www.w3.org/2000/svg" viewBox="0 0 114 38"><g clip-path="url(#a)"><path d="M5.375 7.633H0V37.48h5.375V7.633ZM9.703 15.107h4.929v2.059c1.05-2.02 3.796-2.785 5.9-2.785 2.3 0 4.565.97 5.978 2.785.201.201.363.445.525.686.162-.284.363-.524.565-.686 1.574-1.898 4.12-2.785 6.546-2.785 2.628 0 5.051.765 6.828 2.785 2.06 2.22 2.3 4.847 2.3 7.754v12.56H37.9V25.564c0-1.294-.04-3.151-.809-4.28-.687-1.05-2.06-1.657-3.354-1.657-1.496 0-2.909.647-3.718 1.937-.927 1.456-.848 3.637-.848 5.25v10.662h-5.368V25.564c0-1.455 0-2.828-.848-4.118-.77-1.172-2.143-1.819-3.516-1.819-4.282 0-4.365 4.04-4.365 7.19V37.48H9.703V15.107ZM47.273 7.633h5.374v7.474h4.648v4.765h-4.648V37.48h-5.374V7.633Z" fill="#fff"/><path d="M103.175 28.138c-.812 0-1.588-.274-2.08-.736a1163.39 1163.39 0 0 0-6.54-6.253c-.61-.575-.928-1.324-.895-2.109.033-.792.42-1.524 1.093-2.066l8.996-6.497c.921-.624 1.869-.954 2.74-.954 1.469 0 2.691.95 3.041 2.363l2.298 9.556c.244 1.013-.33 2.356-1.232 2.875l-6.025 3.48c-.379.222-.875.34-1.396.34Zm10.709-7.19-2.297-9.564c-.588-2.379-2.638-3.976-5.101-3.976-1.304 0-2.667.459-3.945 1.33l-9.056 6.54-.03.023c-1.175.93-1.855 2.224-1.914 3.643-.06 1.393.508 2.759 1.565 3.749 1.776 1.67 6.48 6.197 6.526 6.243l.007.007c.888.835 2.179 1.313 3.536 1.313.901 0 1.75-.214 2.453-.623l6.025-3.482c1.716-.99 2.697-3.277 2.231-5.204Z" fill="#B5002F"/><path d="M97.292 18.525c-.294 0-.571-.043-.829-.125l-5.437-1.766c-1.34-.435-2.52-2.052-2.52-3.464v-8.3c0-.884.232-1.606.664-2.095.387-.429.928-.657 1.575-.657.436 0 .908.103 1.4.3l9.432 3.812c.977.396 1.697 1.122 2.024 2.04.327.92.224 1.936-.284 2.86l-3.232 5.841c-.505.914-1.654 1.554-2.793 1.554Zm8.306-10.965c-.532-1.498-1.677-2.67-3.229-3.297L92.941.453C92.194.151 91.454 0 90.748 0c-2.565 0-4.357 2.003-4.357 4.87v8.3c0 2.346 1.75 4.755 3.981 5.477l5.44 1.766c.47.151.968.23 1.483.23 1.905 0 3.774-1.065 4.648-2.649l3.229-5.84c.809-1.463.961-3.093.426-4.594Z" fill="#E00027"/><path d="m78.335 16.915 14.774-5.5c.313-.113.62-.17.914-.17 1.01 0 1.747.654 1.968 1.743l.918 4.495 1.116 5.477c.069.347.04.647-.09.802-.118.145-.34.175-.505.175-.109 0-.224-.013-.35-.04L79.17 20.18l-.01-.004-.01-.003c-1.356-.26-2.238-.881-2.297-1.614-.05-.63.544-1.293 1.482-1.643Zm21.763 5.623-2.034-9.972c-.42-2.056-2.043-3.439-4.044-3.439-.541 0-1.09.1-1.638.294l-14.79 5.508c-1.865.696-2.984 2.19-2.849 3.807.07.842.476 1.614 1.169 2.231.703.624 1.654 1.056 2.832 1.287l17.904 3.719c.264.056.528.082.779.082.881 0 1.644-.336 2.146-.953.545-.66.73-1.57.525-2.564Z" fill="#EC6D1F"/><path d="M67.114 21.73c-1.027.28-1.707.34-2.017-.034-.218-.264-.185-.818.346-1.927l6.029-12.513c.455-.94 1.096-1.481 1.756-1.481.564 0 1.169.376 1.707 1.059 1.776 2.26 6.662 8.438 6.708 8.497.43.548.588 1.092.446 1.541-.142.445-.585.799-1.248.997l-13.727 3.86Zm16.193-7.716c-.05-.062-4.932-6.236-6.705-8.493-.948-1.205-2.143-1.868-3.37-1.868-1.51 0-2.847.977-3.669 2.683l-6.028 12.513c-.98 2.032-.667 3.283-.234 3.973.498.795 1.413 1.23 2.568 1.23.558 0 1.175-.099 1.836-.293l13.714-3.861.01-.003c1.34-.396 2.317-1.267 2.674-2.386.36-1.119.069-2.393-.796-3.495Z" fill="#F08400"/></g><defs><clipPath id="a"><path fill="#fff" d="M0 0h114v37.48H0z"/></clipPath></defs></svg>
